<?xml version="1.0" standalone="no"?>
<!DOCTYPE svg PUBLIC "-//W3C//DTD SVG 20010904//EN"
 "http://www.w3.org/TR/2001/REC-SVG-20010904/DTD/svg10.dtd">
<svg version="1.0" xmlns="http://www.w3.org/2000/svg"
 width="2250.000000pt" height="2250.000000pt" viewBox="0 0 2250.000000 2250.000000"
 preserveAspectRatio="xMidYMid meet">
<metadata>
Created by potrace 1.11, written by Peter Selinger 2001-2013
</metadata>
<g transform="translate(0.000000,2250.000000) scale(0.100000,-0.100000)"
fill="#000000" stroke="none">
<path d="M11342 22479 c-5 -8 -41 -28 -78 -44 -38 -16 -102 -44 -142 -62 -39
-18 -74 -33 -77 -33 -2 0 -33 -13 -67 -29 -35 -15 -103 -45 -153 -66 -124 -52
-142 -59 -208 -89 -32 -14 -60 -26 -63 -26 -3 0 -20 -7 -37 -15 -18 -8 -93
-38 -167 -68 -74 -30 -162 -66 -195 -79 -83 -35 -99 -41 -110 -44 -5 -1 -28
-10 -50 -20 -22 -10 -42 -18 -45 -19 -3 0 -43 -15 -90 -34 -47 -18 -94 -36
-105 -41 -11 -4 -31 -12 -45 -18 -14 -6 -47 -20 -75 -30 -27 -11 -75 -29 -105
-41 -30 -13 -59 -24 -65 -25 -5 -2 -17 -6 -25 -9 -8 -3 -136 -51 -285 -106
-148 -54 -308 -113 -355 -131 -47 -17 -89 -32 -95 -34 -5 -2 -17 -6 -25 -9
-29 -11 -650 -227 -665 -231 -28 -7 -204 -66 -226 -75 -13 -5 -159 -53 -324
-106 -387 -124 -394 -126 -408 -129 -7 -2 -19 -6 -27 -9 -26 -10 -116 -37
-136 -42 -10 -2 -46 -13 -79 -24 -33 -11 -98 -31 -145 -45 -47 -13 -139 -41
-205 -61 -66 -21 -127 -39 -135 -41 -8 -2 -148 -42 -310 -89 -162 -47 -304
-87 -315 -89 -11 -3 -51 -14 -90 -26 -38 -11 -77 -22 -85 -24 -8 -2 -35 -9
-60 -16 -25 -7 -52 -14 -60 -16 -8 -2 -49 -13 -90 -24 -41 -11 -83 -23 -92
-25 -28 -8 -47 -13 -133 -36 -44 -11 -88 -23 -98 -25 -38 -9 -58 -14 -207 -54
-85 -23 -164 -44 -175 -46 -39 -8 -61 -13 -140 -34 -44 -12 -89 -23 -100 -25
-11 -3 -49 -12 -84 -21 -36 -9 -72 -18 -80 -20 -9 -2 -36 -8 -61 -15 -25 -6
-52 -12 -60 -14 -8 -2 -71 -17 -140 -34 -158 -38 -299 -71 -325 -77 -11 -2
-101 -22 -200 -45 -99 -23 -186 -41 -192 -42 -7 0 -13 -5 -13 -11 -4 -82 -16
-442 -25 -731 -3 -88 -7 -211 -10 -274 -2 -62 -2 -117 0 -121 4 -6 437 135
535 173 8 4 49 17 90 31 98 33 385 133 530 186 63 23 120 43 125 44 10 3 17 5
60 22 11 4 25 8 30 10 11 3 172 62 195 71 8 3 20 7 25 9 6 2 71 26 145 54 74
28 140 52 145 53 9 2 142 51 210 77 83 32 113 44 130 51 29 13 158 61 170 63
6 1 27 10 49 19 21 9 41 17 43 17 3 0 44 15 92 34 47 19 140 55 206 80 66 26
128 51 137 56 10 6 23 10 29 10 6 0 25 6 42 14 18 8 212 86 432 174 220 88
414 165 430 172 54 22 69 28 170 71 55 23 138 57 185 76 74 30 357 148 415
173 11 5 43 19 70 31 74 32 137 59 160 69 11 4 46 20 78 34 32 14 60 26 62 26
2 0 60 24 127 54 68 30 233 102 368 161 216 95 306 135 518 231 29 13 55 24
57 24 2 0 36 15 74 34 38 19 72 31 75 28 3 -3 6 0 6 6 0 7 4 12 10 12 5 0 33
11 62 24 29 14 141 65 248 114 241 111 330 152 445 207 50 24 128 61 175 83
149 70 311 148 516 248 109 54 201 98 204 99 3 0 73 35 155 76 150 75 151 75
180 59 17 -9 62 -34 100 -55 39 -21 79 -43 90 -50 11 -7 47 -27 80 -45 33 -18
164 -89 290 -157 315 -172 332 -181 480 -258 72 -37 135 -71 140 -75 6 -4 87
-47 180 -96 94 -48 238 -123 320 -166 165 -86 1511 -758 1615 -806 36 -17 128
-60 205 -97 150 -72 272 -130 400 -190 44 -20 131 -62 193 -91 63 -30 115 -54
117 -54 2 0 46 -20 97 -44 51 -24 116 -54 143 -66 28 -12 77 -35 110 -50 113
-52 180 -82 220 -100 22 -10 67 -30 100 -45 191 -86 253 -114 485 -215 140
-62 278 -121 305 -132 28 -11 57 -24 66 -28 9 -5 61 -27 115 -50 54 -23 117
-50 139 -60 22 -10 69 -30 105 -45 36 -14 79 -32 95 -40 17 -7 53 -22 80 -33
28 -11 68 -28 90 -38 22 -10 42 -18 45 -19 3 -1 23 -9 45 -19 22 -10 74 -31
115 -48 41 -16 89 -36 105 -43 17 -7 116 -47 220 -89 105 -42 199 -81 210 -86
11 -5 148 -59 305 -120 157 -62 294 -116 305 -120 51 -23 200 -79 202 -77 6 7
32 710 36 996 l2 144 -45 13 c-25 7 -200 55 -390 108 -190 52 -367 102 -395
111 -27 8 -104 31 -170 49 -192 55 -620 183 -645 193 -8 3 -19 7 -25 8 -14 3
-267 82 -335 105 -143 47 -626 204 -635 206 -34 8 -495 167 -955 331 -291 103
-328 117 -362 134 -10 5 -25 9 -33 9 -8 0 -23 4 -33 10 -19 11 -336 130 -346
130 -3 0 -25 9 -49 20 -23 10 -80 33 -127 50 -47 17 -94 34 -105 39 -11 5
-186 75 -390 156 -203 81 -388 155 -410 165 -44 20 -247 104 -255 106 -3 0
-31 12 -64 27 -32 15 -60 27 -63 27 -2 0 -29 11 -59 25 -30 14 -57 25 -59 25
-2 0 -28 11 -57 24 -83 38 -135 60 -258 114 -63 27 -145 64 -183 81 -37 17
-70 31 -72 31 -3 0 -42 17 -88 39 -89 41 -154 71 -232 106 -27 13 -108 50
-179 84 -70 33 -130 61 -131 61 -4 0 -333 159 -577 279 -103 50 -191 99 -196
108 -12 21 -67 23 -80 2z"/>
<path d="M10338 20405 c-1 -2 -82 -6 -178 -10 -96 -4 -202 -9 -235 -11 -83 -4
-319 -21 -415 -29 -25 -3 -79 -7 -120 -10 -41 -3 -91 -8 -110 -10 -45 -6 -98
-12 -185 -21 -38 -4 -77 -8 -85 -9 -8 -1 -42 -5 -75 -9 -33 -4 -89 -11 -125
-17 -62 -9 -92 -13 -177 -24 -21 -3 -51 -7 -68 -10 -16 -2 -48 -7 -70 -10 -22
-4 -51 -8 -65 -11 -43 -9 -64 -12 -110 -18 -52 -7 -84 -13 -108 -20 -15 -4
-40 -9 -117 -21 -11 -2 -78 -16 -150 -30 -71 -15 -139 -29 -150 -31 -19 -4
-119 -27 -253 -60 -35 -9 -68 -17 -75 -18 -7 -2 -32 -8 -57 -15 -25 -7 -52
-14 -61 -16 -57 -11 -481 -137 -544 -161 -22 -9 -47 -17 -55 -19 -17 -3 -222
-74 -285 -98 -148 -57 -181 -70 -191 -78 -7 -6 -16 -9 -20 -7 -5 1 -27 -6 -49
-16 -22 -9 -83 -35 -135 -58 -153 -65 -511 -235 -520 -247 -3 -3 -53 -31 -112
-61 -60 -30 -108 -58 -108 -62 0 -4 -5 -8 -11 -8 -35 0 -643 -400 -699 -460
-3 -3 -30 -24 -60 -47 -30 -23 -64 -50 -75 -60 -12 -10 -50 -43 -85 -73 -199
-167 -445 -422 -604 -623 -22 -29 -44 -53 -48 -55 -5 -2 -8 -8 -8 -14 0 -5 -6
-16 -13 -23 -23 -26 -32 -40 -102 -145 -92 -140 -107 -165 -145 -235 -18 -33
-35 -64 -39 -70 -3 -5 -6 -12 -7 -15 0 -3 -18 -41 -39 -85 -57 -121 -125 -310
-127 -352 0 -5 -4 -15 -8 -23 -4 -8 -11 -32 -14 -54 -4 -21 -8 -41 -10 -45 -9
-14 -20 -174 -19 -271 3 -160 7 -181 36 -186 7 -1 26 -5 42 -8 34 -7 262 -8
315 -2 74 9 126 16 155 21 79 14 144 28 190 40 109 30 412 91 500 100 17 2 30
4 30 5 0 5 148 13 240 14 166 0 298 -22 431 -73 85 -33 254 -128 254 -143 0
-4 -24 -45 -53 -90 -30 -46 -80 -127 -111 -180 l-58 -98 -67 65 c-132 128
-236 196 -354 230 -84 24 -103 27 -215 29 -111 3 -224 -8 -372 -34 -30 -5 -68
-12 -85 -15 -34 -5 -33 -5 -170 -35 -55 -12 -111 -23 -125 -26 -14 -2 -47 -9
-75 -14 -84 -16 -98 -18 -260 -36 -16 -1 -54 -4 -83 -5 -29 -1 -55 -6 -57 -10
-8 -11 42 -141 57 -150 11 -7 94 -6 281 6 21 1 39 -1 41 -4 2 -3 7 -28 10 -56
22 -198 23 -199 45 -244 l19 -37 -46 0 c-26 -1 -62 -4 -81 -8 -42 -8 -153 -59
-193 -88 l-29 -20 -62 20 c-34 11 -75 18 -92 17 -16 -2 -37 -3 -46 -4 -57 -4
-157 -190 -183 -343 -4 -25 -1 -28 47 -41 54 -16 223 -50 245 -50 20 0 15 -15
-39 -124 -59 -121 -68 -160 -44 -196 26 -40 135 -88 213 -93 37 -3 72 -7 79
-9 7 -2 15 0 18 5 3 5 18 5 34 0 16 -4 32 -5 36 -2 7 7 102 5 114 -3 5 -3 12
-1 15 4 4 5 19 6 34 3 15 -4 109 -7 210 -6 101 0 185 -3 187 -7 3 -4 -7 -42
-21 -85 -18 -53 -27 -101 -27 -146 0 -58 3 -71 28 -104 40 -52 96 -74 173 -69
35 2 66 7 71 9 4 3 22 8 39 11 103 17 94 18 88 -12 -7 -33 -12 -58 -26 -133
-6 -30 -12 -64 -14 -75 -2 -11 -7 -40 -11 -65 -3 -25 -8 -57 -11 -71 -2 -14
-6 -52 -10 -85 -3 -32 -7 -75 -9 -94 -28 -259 -21 -625 15 -830 5 -30 12 -73
15 -95 6 -41 52 -228 62 -255 4 -8 7 -17 8 -20 1 -3 6 -21 12 -40 34 -113 129
-317 215 -458 l38 -64 -163 7 c-184 8 -229 10 -488 20 l-185 6 -39 -43 c-21
-24 -90 -99 -154 -167 -64 -68 -129 -138 -146 -155 -35 -38 -162 -178 -220
-244 -22 -25 -47 -53 -55 -62 -14 -15 -94 -112 -112 -135 -144 -184 -174 -229
-224 -335 -21 -43 -27 -71 -28 -130 -1 -102 8 -131 62 -198 82 -102 244 -171
442 -188 92 -8 200 -10 200 -4 0 3 29 6 65 8 l65 2 0 -70 c0 -38 -3 -70 -7
-71 -5 0 -17 -2 -28 -4 -46 -9 -112 -16 -182 -20 -41 -3 -78 -7 -82 -10 -9 -5
-7 -1405 2 -1445 3 -14 8 -42 12 -64 18 -103 92 -280 157 -374 51 -73 58 -83
138 -162 129 -129 285 -225 476 -293 55 -19 102 -35 106 -36 4 -1 13 -3 20 -5
52 -15 98 -26 128 -31 31 -5 86 -14 177 -30 16 -3 69 -8 118 -12 118 -10
11996 -10 12102 0 45 4 92 10 105 12 13 3 43 8 68 11 25 3 61 9 80 14 19 5 49
12 65 15 17 3 55 12 85 20 30 9 62 17 70 19 13 4 70 24 125 46 56 22 198 99
261 141 170 114 322 305 394 491 26 67 59 197 67 257 9 73 9 1422 0 1428 -4 3
-31 6 -60 8 -56 4 -134 12 -182 20 -16 3 -42 7 -58 9 -15 3 -35 7 -45 10 -9 3
-33 7 -52 10 -19 3 -62 13 -95 22 -33 8 -68 17 -78 19 -10 2 -26 6 -35 9 -9 3
-28 7 -42 10 -14 3 -36 8 -50 11 -187 44 -334 63 -470 60 -239 -5 -334 -53
-575 -292 -103 -102 -226 -200 -316 -252 -74 -43 -261 -128 -299 -136 -3 -1
-35 -11 -73 -23 -60 -19 -154 -39 -272 -57 -69 -11 -277 -13 -360 -4 -44 5
-96 11 -115 13 -118 13 -257 44 -415 90 -5 2 -23 8 -38 14 -16 7 -30 12 -31
12 -2 0 -20 7 -40 15 -20 8 -37 14 -38 13 -2 -2 -18 7 -35 20 -18 13 -33 21
-33 18 0 -11 -353 191 -358 206 -2 4 -7 8 -11 8 -5 0 -66 36 -137 81 -238 149
-332 194 -479 230 -135 32 -301 41 -475 26 -71 -6 -90 -9 -150 -22 -14 -4 -34
-8 -46 -10 -124 -27 -379 -134 -509 -216 -16 -10 -42 -25 -57 -34 -32 -18
-211 -144 -218 -153 -10 -13 -159 -112 -168 -112 -6 0 -12 -3 -14 -7 -5 -12
-113 -76 -203 -120 -115 -58 -250 -109 -363 -138 -95 -25 -118 -29 -253 -44
-90 -9 -258 -3 -339 13 -14 2 -41 7 -60 10 -45 7 -197 51 -263 77 -203 78
-371 175 -605 348 -129 95 -242 166 -350 221 -91 46 -228 106 -262 115 -8 2
-46 13 -85 24 -38 12 -95 26 -125 31 -30 6 -66 13 -80 16 -56 12 -322 10 -407
-3 -77 -12 -165 -33 -213 -51 -8 -3 -17 -6 -20 -7 -3 0 -20 -9 -37 -18 -18
-10 -35 -17 -38 -17 -16 1 -209 -110 -355 -204 -135 -88 -182 -117 -233 -146
-32 -18 -60 -30 -62 -28 -3 2 15 44 38 94 24 49 50 104 59 122 8 19 26 41 40
50 133 90 288 192 292 192 3 0 27 13 53 28 81 48 271 121 349 136 16 2 38 7
49 9 151 33 380 38 590 11 57 -7 62 -8 130 -24 28 -6 57 -13 65 -15 70 -14
345 -119 371 -141 8 -8 23 -14 31 -14 9 0 21 -7 28 -15 6 -8 21 -17 32 -21 65
-20 337 -208 464 -319 7 -5 24 -19 40 -30 15 -11 33 -25 39 -32 27 -26 215
-144 293 -183 46 -23 116 -52 155 -65 67 -23 85 -27 162 -42 74 -15 250 -6
340 16 102 26 223 74 275 108 19 13 38 23 43 23 22 0 215 136 342 241 373 309
795 496 1182 525 74 5 276 5 328 0 53 -6 115 -15 140 -20 162 -35 262 -70 395
-138 63 -32 121 -65 130 -72 8 -7 22 -16 30 -19 8 -4 67 -43 130 -87 174 -123
349 -240 356 -240 4 0 15 -6 23 -14 44 -38 239 -126 344 -155 99 -28 135 -34
308 -57 58 -7 204 -7 244 0 17 3 48 8 70 10 68 9 204 54 294 97 105 51 207
126 286 210 78 82 222 227 261 260 49 43 194 133 264 164 71 31 177 61 255 72
62 9 283 9 350 -1 91 -12 184 -29 248 -45 20 -5 37 -7 37 -5 0 3 8 0 18 -5 9
-5 31 -11 47 -14 17 -3 57 -13 90 -22 33 -9 68 -18 78 -20 9 -2 21 -6 25 -9 5
-3 19 -7 33 -9 13 -3 62 -14 109 -25 47 -11 92 -20 100 -20 8 0 25 -3 37 -6
90 -20 329 -22 423 -2 8 1 36 6 63 11 26 4 50 11 53 16 3 5 12 9 21 9 33 0
149 67 195 112 61 60 89 123 92 209 7 159 -92 248 -499 446 -99 48 -119 66
-97 83 9 7 46 61 55 80 4 8 20 35 36 60 16 25 44 74 62 108 18 35 37 65 43 67
6 1 44 8 84 14 285 44 553 249 700 536 52 101 79 255 58 340 -53 223 -245 335
-460 271 l-47 -14 7 41 c8 52 7 323 -1 357 -4 14 -8 36 -9 50 -18 151 -103
363 -193 481 -49 65 -169 179 -188 179 -8 0 -15 3 -17 8 -5 12 -109 60 -168
77 -91 27 -241 36 -360 22 -224 -27 -442 -127 -652 -299 -69 -56 -195 -183
-237 -238 -47 -63 -71 -86 -72 -70 -3 67 -44 183 -91 257 -51 81 -125 146
-218 190 -67 33 -84 37 -170 39 -63 2 -112 -2 -144 -11 -81 -25 -82 -23 -49
65 3 8 8 23 10 33 1 10 17 70 34 133 35 131 40 154 41 172 2 20 15 15 157 -55
132 -64 139 -66 219 -68 103 -3 170 13 288 70 156 75 199 142 156 246 -16 40
-25 97 -18 115 5 13 20 8 93 -32 49 -26 101 -54 116 -62 39 -19 216 -16 249 4
5 3 45 5 88 5 44 0 91 4 105 9 23 9 47 0 186 -70 197 -98 250 -114 394 -113
82 0 127 19 150 62 l15 29 137 -55 c164 -65 148 -62 297 -69 105 -5 131 -11
224 -45 58 -21 110 -39 117 -39 13 0 53 85 130 275 71 177 71 180 41 262 -30
82 -90 233 -115 288 -10 22 -22 51 -26 65 -6 21 -48 128 -84 215 -5 11 -14 33
-20 48 l-11 28 -26 -20 c-24 -19 -28 -19 -76 -4 -78 23 -99 39 -88 69 7 18 6
31 -5 48 -8 12 -12 25 -9 28 10 10 70 -1 118 -22 49 -21 53 -17 33 33 -8 18
-15 37 -17 42 -1 6 -7 21 -13 35 -15 37 -37 92 -47 115 -4 11 -23 58 -41 105
-17 47 -37 90 -43 97 -6 6 -49 14 -96 18 -47 4 -94 9 -105 11 -34 7 -68 13
-115 19 -25 3 -61 10 -80 15 -19 5 -46 11 -60 14 -14 2 -88 20 -165 39 -77 20
-151 38 -165 40 -32 6 -178 35 -209 41 -118 25 -349 26 -441 2 -153 -39 -238
-95 -455 -293 -93 -86 -222 -173 -352 -238 -149 -74 -155 -75 -186 -30 -33 48
-93 91 -142 101 -22 5 -43 9 -47 10 -5 1 -28 2 -53 3 -25 0 -45 6 -45 11 0 6
7 10 15 10 20 0 139 60 212 106 68 44 90 63 207 178 75 73 170 154 257 219 44
33 221 126 270 142 13 4 29 9 34 11 29 11 185 46 215 49 60 5 277 6 302 1 13
-3 46 -8 73 -11 72 -8 99 -12 137 -21 18 -4 38 -8 43 -9 23 -2 92 -17 120 -25
17 -5 41 -11 55 -14 14 -3 59 -14 100 -25 223 -62 322 -85 435 -102 87 -13
336 -21 351 -11 45 27 35 395 -15 582 -6 19 -14 51 -19 70 -14 52 -61 190 -76
225 -19 41 -45 105 -45 108 1 3 -112 221 -139 269 -22 39 -161 257 -175 273
-4 6 -41 54 -82 108 -41 54 -88 115 -105 135 -41 48 -108 126 -143 166 -40 44
-232 238 -270 273 -80 72 -206 181 -247 214 -25 20 -73 60 -107 88 -34 28 -65
51 -67 51 -5 0 -16 8 -69 53 -12 10 -37 28 -57 40 -19 11 -40 26 -47 32 -27
23 -44 34 -193 131 -85 56 -211 133 -280 173 -69 39 -136 78 -150 86 -40 24
-469 238 -535 267 -33 14 -78 34 -100 44 -22 9 -60 26 -85 36 -25 11 -58 25
-75 33 -16 7 -73 30 -125 50 -52 20 -104 40 -115 45 -40 18 -150 55 -157 52
-5 -1 -8 2 -8 6 0 5 -6 9 -12 9 -7 1 -86 26 -175 56 -90 31 -163 53 -163 50 0
-3 -6 -1 -12 4 -17 13 -143 50 -478 143 -45 12 -267 67 -300 74 -46 9 -75 16
-135 30 -117 27 -200 46 -235 51 -19 3 -55 11 -80 16 -25 6 -61 12 -80 15 -19
2 -52 9 -73 15 -21 6 -55 12 -75 14 -39 3 -191 28 -277 45 -27 5 -70 12 -95
15 -25 3 -56 7 -70 10 -14 2 -45 6 -70 9 -25 3 -78 10 -118 15 -40 6 -94 13
-120 16 -26 3 -67 8 -92 11 -70 9 -134 16 -280 30 -30 3 -70 7 -88 9 -18 2
-68 7 -110 10 -42 3 -97 8 -122 10 -83 9 -240 19 -465 29 -71 4 -166 9 -210
12 -87 7 -1341 15 -1347 9z m-1547 -3975 c1 -3 2 -21 4 -40 1 -19 6 -62 11
-95 4 -33 8 -73 8 -90 l1 -30 -110 -1 c-307 -3 -449 -50 -875 -293 -334 -190
-571 -301 -719 -337 -9 -2 -34 -8 -56 -14 -22 -6 -51 -12 -65 -15 -14 -2 -37
-8 -51 -14 -15 -5 -29 -7 -32 -4 -8 7 14 53 25 53 4 0 8 4 8 10 0 5 21 43 48
84 l47 74 85 28 c119 39 335 151 540 282 221 140 419 250 535 295 88 35 220
74 280 83 17 3 40 7 52 9 13 3 53 8 90 11 38 4 69 7 70 8 6 5 103 1 104 -4z
m5004 -84 c17 -3 65 -13 108 -21 78 -16 238 -64 292 -89 17 -8 56 -26 87 -40
31 -14 60 -31 63 -36 4 -6 10 -8 15 -5 4 3 13 -2 20 -10 7 -8 19 -15 26 -15 8
0 14 -4 14 -10 0 -5 4 -10 10 -10 12 0 82 -45 240 -154 69 -47 132 -91 140
-96 113 -78 344 -206 435 -241 11 -4 40 -15 65 -24 25 -9 105 -29 177 -44
l133 -28 -31 -29 c-34 -32 -68 -97 -69 -130 0 -22 -25 -40 -34 -26 -2 4 -19 9
-38 10 -39 3 -195 42 -287 72 -180 58 -386 164 -691 355 -350 220 -503 285
-730 312 -72 9 -352 9 -415 0 -144 -20 -199 -32 -325 -74 -221 -73 -393 -158
-620 -309 -206 -136 -431 -259 -570 -309 -95 -35 -222 -74 -256 -80 -20 -3
-40 -7 -44 -10 -12 -7 -78 -17 -205 -31 -134 -15 -341 -3 -496 30 -176 38
-445 149 -638 263 -2 2 22 29 55 61 32 31 77 80 98 107 22 28 43 54 47 58 3 5
13 2 21 -5 7 -7 21 -17 30 -23 8 -5 47 -31 86 -57 105 -70 206 -123 310 -163
92 -35 95 -36 275 -40 339 -9 345 -9 432 19 172 56 349 155 613 344 261 187
476 300 736 388 121 41 307 84 395 91 36 2 68 6 70 8 6 6 423 -2 456 -9z
m-9081 -669 l7 -48 -31 23 c-42 30 -128 31 -185 1 -50 -26 -122 -95 -135 -129
-24 -63 -6 -104 85 -194 65 -64 102 -112 73 -94 -39 23 -120 83 -172 126 -76
63 -143 94 -256 118 -82 18 -176 47 -207 65 -24 14 -25 15 -5 9 47 -12 135
-11 181 3 143 44 550 159 595 169 10 2 21 6 24 9 11 10 20 -10 26 -58z m13780
-243 c42 -25 76 -47 76 -49 0 -9 -82 -25 -129 -26 -47 -2 -101 19 -101 39 0 4
14 13 30 20 17 8 33 24 36 38 3 13 7 24 9 24 1 0 37 -21 79 -46z m-4259 -998
c14 -9 38 -36 52 -60 52 -86 163 -127 293 -109 54 7 112 57 105 91 -3 16 7 24
48 42 28 13 71 24 96 26 43 2 46 0 125 -75 82 -78 160 -121 221 -121 22 0 23
-2 14 -32 -6 -18 -12 -43 -15 -55 -2 -12 -9 -35 -15 -50 -6 -16 -10 -29 -9
-31 1 -1 -6 -28 -15 -60 -10 -31 -19 -64 -20 -72 -2 -8 -4 -15 -5 -15 -1 0 -3
-7 -5 -15 -1 -8 -8 -35 -16 -60 -7 -25 -13 -49 -15 -55 -16 -76 -51 -181 -82
-245 -14 -30 -26 -57 -27 -60 -4 -14 -30 -69 -97 -210 -41 -85 -88 -183 -103
-217 -16 -34 -31 -60 -33 -58 -3 2 -6 28 -7 57 -11 239 -115 504 -255 645
-161 163 -369 228 -650 200 l-66 -6 -18 42 c-29 65 -32 118 -9 146 16 20 29
24 69 24 64 1 86 -5 164 -41 52 -24 70 -27 92 -20 39 14 57 72 60 194 1 65 -2
77 -35 136 l-36 65 32 11 c45 15 130 9 162 -12z m-2710 -62 c37 -24 65 -76 65
-121 0 -27 -13 -64 -39 -114 -55 -104 -59 -161 -13 -176 41 -14 80 -10 215 22
12 3 46 6 75 7 71 2 105 -29 121 -113 11 -52 17 -63 51 -88 32 -23 48 -28 92
-26 86 3 134 22 181 69 64 66 70 75 83 151 23 124 155 186 286 134 25 -10 45
-42 51 -84 1 -11 5 -24 8 -30 4 -5 9 -26 13 -45 l6 -35 -83 -1 c-119 -2 -154
-20 -288 -153 -61 -61 -124 -119 -140 -128 -16 -10 -29 -20 -29 -24 0 -11
-115 -58 -151 -61 -26 -2 -33 0 -30 12 2 8 5 45 7 81 4 98 -39 182 -120 233
-53 34 -114 43 -271 39 -82 -1 -244 -4 -360 -7 -225 -4 -253 -9 -322 -62 -57
-44 -83 -100 -108 -239 -29 -158 -2 -405 57 -523 12 -23 12 -24 -125 -282 -34
-65 -87 -160 -117 -210 -5 -8 -26 -44 -46 -80 -21 -36 -51 -78 -66 -95 -15
-16 -28 -33 -28 -37 0 -5 -4 -8 -8 -8 -8 0 2 47 42 190 8 30 18 70 21 89 3 19
10 41 14 50 5 9 12 32 15 53 3 20 12 56 20 80 14 42 60 211 97 358 73 286 101
408 104 446 4 49 -29 150 -58 183 -32 34 -103 81 -124 81 -13 0 -5 12 27 43
25 23 57 56 71 72 14 17 79 80 144 140 65 61 140 131 168 158 28 26 54 47 58
47 12 0 15 -33 7 -73 -5 -21 -5 -49 -2 -62 15 -59 117 -89 190 -55 25 11 63
46 104 96 105 129 97 123 135 98z m-2287 -267 c-52 -40 -58 -39 -31 9 24 44
27 45 40 28 12 -16 11 -21 -9 -37z m-2352 -2 c-8 -22 19 -32 106 -38 168 -13
226 -44 242 -127 1 -3 10 -19 20 -36 32 -54 80 -72 144 -55 20 6 37 9 39 7 3
-3 -100 -187 -138 -246 -9 -15 -183 -368 -199 -405 -5 -11 -18 -40 -29 -65
-55 -127 -136 -335 -253 -650 -11 -30 -24 -64 -29 -75 -4 -11 -25 -67 -45
-124 l-38 -103 -90 5 c-103 6 -131 13 -221 57 -139 68 -233 215 -270 420 -29
163 -33 221 -30 405 4 176 6 216 19 299 2 17 7 51 11 76 3 25 8 52 9 60 2 8 7
38 11 65 10 56 12 64 14 68 1 1 4 16 7 32 9 64 41 170 50 170 11 0 99 37 144
60 14 7 27 13 30 13 8 1 47 17 200 82 80 34 151 62 158 63 6 0 12 4 12 9 0 4
8 8 18 8 9 1 33 9 52 20 43 23 64 25 56 5z m2560 -1192 c-4 -16 -9 -41 -12
-58 -10 -59 -82 -269 -120 -352 -13 -28 -24 -55 -24 -59 0 -20 -194 -384 -205
-384 -2 0 5 26 15 58 10 31 39 125 65 207 72 230 158 430 242 563 38 58 47 65
39 25z m3245 -90 c-8 -17 -55 -195 -66 -253 -3 -14 -7 -36 -9 -50 -3 -14 -8
-43 -11 -65 -6 -44 -13 -54 -141 -222 -112 -146 -235 -293 -245 -293 -4 0 -14
6 -21 13 -7 7 -35 28 -63 47 -27 18 -52 34 -54 36 -3 2 40 63 64 90 6 6 17 22
25 34 8 12 20 28 25 34 6 6 23 29 40 51 16 22 33 45 38 50 21 25 333 435 370
486 40 55 68 79 48 42z m4969 -734 c0 -6 13 -36 29 -69 l29 -58 -20 -34 c-12
-18 -19 -33 -17 -34 2 0 -18 -37 -45 -82 -50 -83 -71 -97 -56 -39 5 17 11 52
14 77 3 25 8 56 11 70 3 14 8 36 11 50 3 14 6 30 8 35 1 6 6 31 10 57 5 26 12
45 17 42 5 -3 9 -10 9 -15z m-1170 -571 c0 -11 -8 -18 -20 -18 -23 0 -24 1 -8
35 12 27 28 18 28 -17z m-10727 -1425 l30 -32 -44 -52 c-52 -63 -150 -159
-163 -159 -8 0 -2 82 7 98 9 14 24 146 28 251 l2 43 56 -58 c30 -33 68 -73 84
-91z"/>
</g>
</svg>
